<?xml version="1.0" standalone="no"?>
<!DOCTYPE svg PUBLIC "-//W3C//DTD SVG 20010904//EN"
 "http://www.w3.org/TR/2001/REC-SVG-20010904/DTD/svg10.dtd">
<svg version="1.0" xmlns="http://www.w3.org/2000/svg"
 width="512.000000pt" height="512.000000pt" viewBox="0 0 512.000000 512.000000"
 preserveAspectRatio="xMidYMid meet">

<g transform="translate(0.000000,512.000000) scale(0.100000,-0.100000)"
fill="#000000" stroke="none">
<path d="M1000 4400 l0 -140 -140 0 -140 0 0 -145 0 -145 -140 0 -140 0 0
-565 0 -565 140 0 140 0 0 -280 0 -280 138 0 139 0 6 212 c4 116 7 242 7 280
l0 68 -145 0 -145 0 2 428 3 427 138 3 137 3 0 139 0 140 140 0 139 0 3 138 3
137 143 3 142 3 0 -139 0 -140 276 -7 c170 -5 279 -4 285 2 5 5 8 69 7 144
l-3 134 -142 3 -143 3 0 139 0 140 -425 0 -425 0 0 -140z"/>
<path d="M3270 4400 l0 -139 -142 -3 -143 -3 -3 -134 c-1 -75 2 -139 7 -144 6
-6 115 -7 285 -2 l276 7 0 140 0 139 143 -3 142 -3 3 -137 3 -138 139 0 140 0
0 -140 0 -139 138 -3 137 -3 3 -427 2 -428 -146 0 -147 0 6 -212 c4 -116 7
-242 7 -280 l0 -68 140 0 140 0 0 280 0 280 140 0 140 0 0 565 0 565 -140 0
-140 0 0 145 0 145 -140 0 -140 0 0 140 0 140 -425 0 -425 0 0 -140z"/>
<path d="M2132 3833 l3 -138 143 -3 142 -3 0 -139 0 -140 140 0 140 0 0 140 0
139 143 3 142 3 3 138 3 137 -146 0 -145 0 0 -140 0 -140 -140 0 -140 0 0 140
0 140 -145 0 -146 0 3 -137z"/>
<path d="M1004 2267 c-2 -7 -3 -71 -2 -143 l3 -129 140 0 140 0 3 143 3 142
-141 0 c-106 0 -142 -3 -146 -13z"/>
<path d="M3832 2138 l3 -143 140 0 140 0 0 140 0 140 -143 3 -143 3 3 -143z"/>
<path d="M1290 1855 l0 -145 140 0 140 0 0 -140 0 -140 140 0 140 0 0 -140 0
-140 145 0 145 0 0 -145 0 -145 140 0 140 0 0 -140 0 -140 140 0 140 0 0 140
0 140 140 0 140 0 0 145 0 145 145 0 145 0 0 140 0 140 140 0 140 0 0 140 0
140 140 0 140 0 0 145 0 145 -140 0 -140 0 0 -145 0 -145 -140 0 -140 0 0
-140 0 -140 -282 -2 -283 -3 -3 -142 -3 -143 -139 0 -139 0 -3 143 -3 142
-282 3 -283 2 0 140 0 140 -140 0 -140 0 0 145 0 145 -140 0 -140 0 0 -145z"/>
</g>
</svg>
