<?xml version="1.0" standalone="no"?>
<!DOCTYPE svg PUBLIC "-//W3C//DTD SVG 20010904//EN"
 "http://www.w3.org/TR/2001/REC-SVG-20010904/DTD/svg10.dtd">
<svg version="1.0" xmlns="http://www.w3.org/2000/svg"
 width="512.000000pt" height="512.000000pt" viewBox="0 0 512.000000 512.000000"
 preserveAspectRatio="xMidYMid meet">

<g transform="translate(0.000000,512.000000) scale(0.100000,-0.100000)"
fill="#000000" stroke="none">
<path d="M330 4955 l0 -165 -165 0 -165 0 0 -1785 0 -1785 165 0 165 0 0 -165
0 -165 725 0 725 0 0 -165 0 -165 170 0 170 0 0 165 0 165 440 0 440 0 0 -165
0 -165 170 0 170 0 0 165 0 165 725 0 725 0 0 165 0 165 165 0 165 0 0 1785 0
1785 -165 0 -165 0 0 165 0 165 -2230 0 -2230 0 0 -165z m3568 -174 l882 -1 0
-1445 0 -1445 -2219 0 -2218 0 -5 192 c-4 196 -5 1294 0 2200 l2 498 498 2
c273 2 875 2 1337 1 462 0 1237 -2 1723 -2z m882 -3386 l0 -165 -2220 0 -2220
0 0 165 0 165 2220 0 2220 0 0 -165z"/>
<path d="M1220 165 l0 -165 1340 0 1340 0 0 165 0 165 -1340 0 -1340 0 0 -165z"/>
</g>
</svg>
