<?xml version="1.0" standalone="no"?>
<!DOCTYPE svg PUBLIC "-//W3C//DTD SVG 20010904//EN"
 "http://www.w3.org/TR/2001/REC-SVG-20010904/DTD/svg10.dtd">
<svg version="1.0" xmlns="http://www.w3.org/2000/svg"
 width="512.000000pt" height="512.000000pt" viewBox="0 0 512.000000 512.000000"
 preserveAspectRatio="xMidYMid meet">

<g transform="translate(0.000000,512.000000) scale(0.100000,-0.100000)"
fill="#000000" stroke="black">
<path d="M2400 4560 l0 -80 -80 0 -80 0 0 -80 0 -80 -960 0 -960 0 0 -80 0
-80 -80 0 -80 0 0 -160 0 -160 80 0 80 0 0 -80 0 -80 80 0 80 0 0 -1360 0
-1360 80 0 80 0 0 -80 0 -80 1920 0 1920 0 0 80 0 80 80 0 80 0 0 1360 0 1360
80 0 80 0 0 80 0 80 80 0 80 0 0 160 0 160 -80 0 -80 0 0 80 0 80 -960 0 -960
0 0 80 0 80 -80 0 -80 0 0 80 0 80 -160 0 -160 0 0 -80z m320 -160 l0 -80
-160 0 -160 0 0 80 0 80 160 0 160 0 0 -80z m2080 -400 l0 -160 -2240 0 -2240
0 0 160 0 160 2240 0 2240 0 0 -160z m-320 -1680 l0 -1360 -1920 0 -1920 0 0
1360 0 1360 1920 0 1920 0 0 -1360z"/>
<path d="M960 2400 l0 -960 80 0 80 0 0 -80 0 -80 1520 0 1520 0 0 80 0 80
-1520 0 -1520 0 0 960 0 960 -80 0 -80 0 0 -960z"/>
<path d="M1440 3120 l0 -80 80 0 80 0 0 80 0 80 -80 0 -80 0 0 -80z"/>
<path d="M1760 3120 l0 -80 240 0 240 0 0 80 0 80 -240 0 -240 0 0 -80z"/>
<path d="M3360 3120 l0 -80 160 0 160 0 0 -160 0 -160 80 0 80 0 0 240 0 240
-240 0 -240 0 0 -80z"/>
<path d="M3360 2800 l0 -80 -80 0 -80 0 0 -80 0 -80 -80 0 -80 0 0 -80 0 -80
-80 0 -80 0 0 -80 0 -80 -80 0 -80 0 0 80 0 80 -80 0 -80 0 0 80 0 80 -80 0
-80 0 0 80 0 80 -80 0 -80 0 0 -80 0 -80 -80 0 -80 0 0 -80 0 -80 -80 0 -80 0
0 -80 0 -80 -80 0 -80 0 0 -80 0 -80 -80 0 -80 0 0 -80 0 -80 -80 0 -80 0 0
-80 0 -80 -80 0 -80 0 0 -80 0 -80 80 0 80 0 0 80 0 80 80 0 80 0 0 80 0 80
80 0 80 0 0 80 0 80 80 0 80 0 0 80 0 80 80 0 80 0 0 80 0 80 80 0 80 0 0 80
0 80 80 0 80 0 0 -80 0 -80 80 0 80 0 0 -80 0 -80 80 0 80 0 0 -80 0 -80 80 0
80 0 0 80 0 80 80 0 80 0 0 80 0 80 80 0 80 0 0 80 0 80 80 0 80 0 0 80 0 80
80 0 80 0 0 80 0 80 -80 0 -80 0 0 -80z"/>
<path d="M3360 2000 l0 -80 80 0 80 0 0 80 0 80 -80 0 -80 0 0 -80z"/>
<path d="M3680 2000 l0 -80 160 0 160 0 0 80 0 80 -160 0 -160 0 0 -80z"/>
<path d="M3360 1680 l0 -80 80 0 80 0 0 80 0 80 -80 0 -80 0 0 -80z"/>
<path d="M3680 1680 l0 -80 160 0 160 0 0 80 0 80 -160 0 -160 0 0 -80z"/>
</g>
</svg>
