<?xml version="1.0" standalone="no"?>
<!DOCTYPE svg PUBLIC "-//W3C//DTD SVG 20010904//EN"
 "http://www.w3.org/TR/2001/REC-SVG-20010904/DTD/svg10.dtd">
<svg version="1.0" xmlns="http://www.w3.org/2000/svg"
 width="512.000000pt" height="512.000000pt" viewBox="0 0 512.000000 512.000000"
 preserveAspectRatio="xMidYMid meet">

<g transform="translate(0.000000,512.000000) scale(0.100000,-0.100000)"
fill="#f3f3f3" stroke="none">
<path d="M1000 4730 l0 -390 -500 0 -500 0 0 -665 0 -665 165 0 165 0 2 498 3
497 503 3 502 2 0 390 0 390 1220 0 1220 0 0 -390 0 -390 503 -2 502 -3 3
-497 2 -498 165 0 165 0 0 665 0 665 -500 0 -500 0 0 390 0 390 -1560 0 -1560
0 0 -390z"/>
<path d="M670 3505 l0 -165 165 0 165 0 0 -165 0 -165 170 0 170 0 0 330 0
330 -335 0 -335 0 0 -165z"/>
<path d="M3780 3340 l0 -330 170 0 170 0 0 165 0 165 165 0 165 0 0 165 0 165
-335 0 -335 0 0 -330z"/>
<path d="M337 3004 c-4 -4 -7 -81 -7 -171 l0 -163 170 0 170 0 0 -165 0 -165
165 0 165 0 0 -170 0 -170 168 2 167 3 3 333 2 332 -335 0 -335 0 -2 168 -3
167 -161 3 c-88 1 -163 -1 -167 -4z"/>
<path d="M4457 3004 c-4 -4 -7 -81 -7 -171 l0 -163 -335 0 -335 0 2 -332 3
-333 168 -3 167 -2 0 170 0 170 165 0 165 0 0 165 0 165 170 0 170 0 -2 168
-3 167 -161 3 c-88 1 -163 -1 -167 -4z"/>
<path d="M1340 1835 l0 -165 165 0 165 0 0 -165 0 -165 165 0 165 0 0 -170 0
-170 -330 0 -330 0 0 -165 0 -165 500 0 500 0 0 500 0 500 -335 0 -335 0 0
165 0 165 -165 0 -165 0 0 -165z"/>
<path d="M3450 1835 l0 -165 -335 0 -335 0 0 -500 0 -500 500 0 500 0 0 165 0
165 -330 0 -330 0 0 170 0 170 165 0 165 0 0 165 0 165 165 0 165 0 0 165 0
165 -165 0 -165 0 0 -165z"/>
<path d="M1000 335 l0 -335 1560 0 1560 0 0 335 0 335 -167 -2 -168 -3 -3
-167 -2 -168 -1220 0 -1220 0 -2 168 -3 167 -167 3 -168 2 0 -335z"/>
</g>
</svg>
