<?xml version="1.0" standalone="no"?>
<!DOCTYPE svg PUBLIC "-//W3C//DTD SVG 20010904//EN"
 "http://www.w3.org/TR/2001/REC-SVG-20010904/DTD/svg10.dtd">
<svg version="1.0" xmlns="http://www.w3.org/2000/svg"
 width="512.000000pt" height="512.000000pt" viewBox="0 0 512.000000 512.000000"
 preserveAspectRatio="xMidYMid meet">

<g transform="translate(0.000000,512.000000) scale(0.100000,-0.100000)"
fill="#f3f3f3" stroke="none">
<path d="M330 4675 l0 -165 -165 0 -165 0 0 -1615 0 -1615 165 0 165 0 0 -165
0 -165 835 0 835 0 0 -335 0 -335 335 0 335 0 0 165 0 165 168 2 167 3 0 165
0 165 -167 3 -168 2 0 -170 0 -170 -165 0 -165 0 0 335 0 335 -1005 0 -1005 0
0 1615 0 1615 2230 0 2230 0 0 -1615 0 -1615 -890 0 -890 0 0 -165 0 -165 890
0 890 0 0 165 0 165 165 0 165 0 0 1615 0 1615 -165 0 -165 0 0 165 0 165
-2230 0 -2230 0 0 -165z"/>
<path d="M1000 3675 l0 -165 1560 0 1560 0 0 165 0 165 -1560 0 -1560 0 0
-165z"/>
<path d="M1000 2895 l0 -165 1560 0 1560 0 0 165 0 165 -1560 0 -1560 0 0
-165z"/>
<path d="M1000 2115 l0 -165 1560 0 1560 0 0 165 0 165 -1560 0 -1560 0 0
-165z"/>
</g>
</svg>
