<?xml version="1.0" standalone="no"?>
<!DOCTYPE svg PUBLIC "-//W3C//DTD SVG 20010904//EN"
 "http://www.w3.org/TR/2001/REC-SVG-20010904/DTD/svg10.dtd">
<svg version="1.0" xmlns="http://www.w3.org/2000/svg"
 width="512.000000pt" height="512.000000pt" viewBox="0 0 512.000000 512.000000"
 preserveAspectRatio="xMidYMid meet">

<g transform="translate(0.000000,512.000000) scale(0.100000,-0.100000)"
fill="#f3f3f3" stroke="none">
<path d="M2000 4955 l0 -165 -165 0 -165 0 0 -170 0 -170 -165 0 -165 0 0
-165 0 -165 -170 0 -170 0 0 -1225 0 -1225 -165 0 -165 0 0 -165 0 -165 165 0
165 0 0 165 0 165 170 0 170 0 0 1225 0 1225 165 0 165 0 0 165 0 165 165 0
165 0 0 170 0 170 1060 0 1060 0 0 -170 0 -170 165 0 165 0 0 -165 0 -165 170
0 170 0 0 -1060 0 -1060 -170 0 -170 0 0 -165 0 -165 -165 0 -165 0 0 -165 0
-165 -1225 0 -1225 0 0 -170 0 -170 -165 0 -165 0 0 -165 0 -165 165 0 165 0
0 165 0 165 1225 0 1225 0 0 170 0 170 165 0 165 0 0 165 0 165 170 0 170 0 0
165 0 165 165 0 165 0 0 1060 0 1060 -165 0 -165 0 0 165 0 165 -170 0 -170 0
0 170 0 170 -165 0 -165 0 0 165 0 165 -1060 0 -1060 0 0 -165z"/>
<path d="M2340 4285 l0 -165 -170 0 -170 0 2 -167 3 -168 165 0 165 0 3 168 2
167 720 0 720 0 2 -167 3 -168 168 -3 167 -2 0 -720 0 -720 -167 -2 -168 -3 0
-165 0 -165 168 -3 167 -2 0 170 0 170 165 0 165 0 0 720 0 720 -165 0 -165 0
0 170 0 170 -170 0 -170 0 0 165 0 165 -720 0 -720 0 0 -165z"/>
<path d="M1670 3060 l0 -720 165 0 165 0 2 -167 3 -168 168 -3 167 -2 0 -165
0 -165 720 0 720 0 0 165 0 165 -720 0 -720 0 0 170 0 170 -170 0 -170 0 0
720 0 720 -165 0 -165 0 0 -720z"/>
<path d="M337 1334 c-4 -4 -7 -81 -7 -171 l0 -163 -165 0 -165 0 0 -335 0
-335 165 0 165 0 0 -165 0 -165 335 0 335 0 0 165 0 165 168 2 167 3 0 165 0
165 -167 3 -168 2 0 -170 0 -170 -335 0 -335 0 0 335 0 335 170 0 170 0 -2
168 -3 167 -161 3 c-88 1 -163 -1 -167 -4z"/>
</g>
</svg>
