<?xml version="1.0" standalone="no"?>
<!DOCTYPE svg PUBLIC "-//W3C//DTD SVG 20010904//EN"
 "http://www.w3.org/TR/2001/REC-SVG-20010904/DTD/svg10.dtd">
<svg version="1.0" xmlns="http://www.w3.org/2000/svg"
 width="1044.000000pt" height="1044.000000pt" viewBox="0 0 1044.000000 1044.000000"
 preserveAspectRatio="xMidYMid meet">
<metadata>
Created by potrace 1.14, written by Peter Selinger 2001-2017
</metadata>
<g transform="translate(0.000000,1044.000000) scale(0.100000,-0.100000)"
fill="#000000" stroke="none">
<path d="M2417 9734 c-1 -1 -38 -5 -82 -8 -131 -10 -169 -16 -181 -29 -11 -13
-94 -203 -94 -216 0 -7 215 -8 297 -2 14 1 53 72 53 96 0 8 5 15 10 15 6 0 10
6 10 13 0 7 9 33 21 56 33 70 33 82 -2 79 -17 -1 -31 -3 -32 -4z"/>
<path d="M3069 9335 c-3 -2 -25 -6 -49 -9 -25 -4 -61 -8 -80 -11 -110 -14
-136 -18 -150 -20 -8 -1 -39 -6 -68 -10 -57 -8 -64 -16 -95 -101 -8 -22 -33
-84 -56 -138 -22 -55 -41 -103 -41 -109 0 -8 56 -5 150 8 19 3 53 7 75 9 22 3
63 8 90 12 28 4 58 7 67 6 20 -1 41 22 45 51 2 12 10 28 18 37 8 9 15 22 15
28 0 6 22 63 49 127 27 63 46 117 41 120 -4 2 -9 3 -11 0z"/>
<path d="M2077 8893 c-2 -1 -46 -5 -98 -7 -51 -3 -94 -6 -94 -7 0 0 -16 -2
-35 -3 -34 -2 -35 -3 -87 -121 -29 -65 -53 -120 -53 -122 0 -2 71 -2 157 -1
127 3 157 6 161 18 3 8 12 33 22 55 9 22 25 63 35 90 10 28 22 54 27 60 15 17
8 41 -12 41 -12 0 -22 -1 -23 -3z"/>
<path d="M3728 8765 c-2 -3 -54 -7 -114 -10 -156 -8 -401 -22 -421 -24 -7 0
-13 -6 -13 -12 0 -5 -8 -29 -19 -52 -21 -48 -85 -199 -87 -207 -1 -7 -13 -37
-35 -89 -11 -24 -19 -46 -19 -50 0 -4 28 -5 63 -4 34 1 125 5 202 8 77 3 171
7 209 9 48 2 72 7 77 17 27 51 160 371 165 397 4 22 2 27 -8 17z"/>
<path d="M4497 8514 c-1 -2 -79 -6 -172 -10 -94 -3 -197 -7 -230 -9 -33 -1
-95 -4 -137 -5 -88 -3 -86 -2 -128 -105 -13 -33 -30 -76 -39 -95 -8 -19 -15
-37 -16 -40 -2 -7 -16 -39 -42 -99 -12 -29 -23 -60 -23 -67 0 -8 -4 -14 -10
-14 -5 0 -10 -6 -10 -14 0 -7 -12 -40 -26 -72 -34 -78 -38 -96 -16 -90 9 3 69
7 132 10 112 6 265 14 365 21 28 2 78 4 112 6 l62 2 46 111 c25 61 52 125 60
141 7 17 35 84 61 150 26 66 51 124 56 130 4 5 8 18 8 30 0 16 -6 21 -25 21
-14 0 -27 -1 -28 -2z"/>
<path d="M2718 8501 c-1 -5 -31 -12 -64 -15 -34 -3 -68 -8 -75 -10 -8 -3 -34
-8 -59 -11 -62 -8 -101 -15 -125 -19 -11 -3 -33 -5 -48 -5 -25 -1 -32 -9 -58
-68 -17 -38 -34 -77 -39 -88 -4 -11 -15 -36 -23 -55 -63 -143 -66 -153 -44
-145 6 3 37 7 67 10 96 8 154 15 195 21 58 9 76 11 111 13 28 1 32 6 64 84 31
76 52 125 86 204 16 36 29 93 21 93 -3 0 -7 -4 -9 -9z"/>
<path d="M5274 8201 c-2 -2 -28 -6 -57 -7 -83 -4 -222 -13 -222 -14 0 -1 -25
-3 -55 -5 -30 -2 -91 -6 -135 -10 -44 -3 -108 -7 -142 -8 -56 -2 -63 -5 -74
-27 -6 -14 -61 -144 -121 -290 -103 -248 -135 -323 -146 -344 -2 -4 35 -5 84
-2 187 13 230 17 269 21 22 3 76 7 120 10 44 2 97 7 118 9 21 3 77 8 125 11
48 4 90 9 94 13 4 4 39 84 78 177 39 94 77 184 85 200 7 17 25 59 40 95 41 99
56 133 66 152 5 10 9 19 9 21 0 6 -130 3 -136 -2z"/>
<path d="M6555 8112 c-13 -2 -26 -18 -39 -50 -24 -60 -95 -231 -106 -257 -5
-11 -15 -36 -23 -55 -8 -19 -31 -75 -52 -125 -20 -49 -41 -99 -45 -110 -28
-67 -64 -154 -76 -181 -28 -63 -197 -471 -224 -539 -16 -38 -36 -88 -46 -110
-10 -22 -18 -44 -20 -50 -1 -5 -11 -30 -22 -55 -12 -25 -48 -112 -82 -195 -34
-82 -65 -159 -70 -170 -5 -11 -37 -87 -70 -170 -65 -157 -67 -162 -99 -235
-11 -25 -23 -58 -26 -73 -4 -15 -11 -27 -16 -27 -5 0 -9 -6 -9 -14 0 -12 -45
-125 -96 -243 -8 -17 -14 -33 -14 -36 0 -2 -8 -22 -17 -43 -9 -22 -17 -41 -18
-44 -2 -7 -24 -59 -42 -100 -8 -19 -19 -44 -23 -55 -5 -11 -27 -65 -51 -120
-23 -55 -42 -104 -43 -110 -1 -5 -7 -19 -13 -30 -11 -20 -77 -176 -78 -185 -1
-3 -9 -23 -19 -45 -10 -22 -29 -68 -42 -102 -13 -35 -28 -71 -33 -80 -6 -10
-42 -97 -81 -193 -40 -96 -83 -202 -97 -235 -14 -33 -29 -69 -33 -80 -5 -11
-18 -42 -30 -70 -12 -27 -23 -54 -24 -60 -3 -11 -11 -31 -45 -107 -11 -27 -17
-48 -13 -48 4 0 2 -4 -3 -8 -6 -4 -28 -50 -49 -102 -41 -104 -43 -109 -80
-193 -14 -32 -26 -63 -26 -70 0 -7 -4 -17 -9 -22 -4 -6 -44 -100 -89 -210 -44
-110 -89 -218 -98 -240 -10 -22 -18 -42 -19 -45 -3 -9 -17 -44 -36 -87 -11
-23 -19 -44 -19 -48 0 -3 -9 -24 -19 -48 -46 -100 -121 -284 -121 -296 0 -8
11 -10 33 -7 132 22 289 31 527 30 256 0 441 -12 458 -28 2 -3 13 -1 23 5 11
5 19 6 19 1 0 -5 15 -9 33 -10 17 -1 43 -4 57 -7 14 -3 41 -8 60 -11 19 -3 42
-7 50 -9 8 -2 31 -7 50 -10 33 -5 77 -14 145 -31 17 -5 35 -8 40 -9 11 0 19
-3 180 -52 50 -15 93 -28 98 -29 4 -1 9 -3 12 -4 3 -1 9 -3 14 -4 5 0 13 -4
17 -8 4 -5 17 -8 29 -8 11 0 25 -4 31 -8 5 -5 32 -17 59 -27 161 -57 481 -210
610 -290 22 -14 47 -28 55 -32 8 -3 34 -19 57 -35 23 -15 46 -28 51 -28 6 0
12 -3 14 -7 2 -5 54 -42 116 -82 61 -41 112 -79 112 -83 0 -4 6 -8 13 -8 6 0
26 -12 42 -25 17 -14 80 -64 140 -112 108 -85 201 -164 299 -253 63 -57 357
-350 414 -413 24 -26 47 -47 52 -47 5 0 12 10 15 23 4 12 13 36 20 52 24 56
115 275 115 279 0 2 12 30 27 62 15 33 28 64 29 69 1 6 11 30 22 55 11 25 64
151 117 280 91 220 105 255 141 337 8 17 14 34 14 38 0 3 8 25 19 48 10 23 47
110 81 192 34 83 68 164 75 180 7 17 36 86 65 155 28 69 58 139 66 157 8 17
14 34 14 38 0 3 9 27 21 53 12 26 27 61 34 77 21 47 320 769 321 775 0 3 5 16
11 30 6 14 30 70 53 125 23 55 45 109 50 120 19 41 33 80 32 88 -1 4 3 7 8 7
6 0 10 6 10 14 0 8 14 45 31 83 17 37 30 69 30 71 -1 1 6 19 15 40 9 20 36 87
61 147 25 61 54 130 65 155 11 24 21 49 22 55 1 5 12 33 25 60 12 28 47 111
78 185 30 74 61 149 68 165 8 17 26 59 40 95 14 36 33 79 41 97 8 17 14 33 14
36 0 2 10 26 22 53 12 27 22 51 23 54 0 3 27 68 59 145 32 77 81 194 108 260
27 66 54 131 60 145 7 14 12 27 13 30 1 3 6 16 12 30 6 14 28 66 48 115 20 50
43 104 50 120 26 57 77 180 90 215 7 19 20 52 29 72 l16 36 -43 48 c-95 107
-333 339 -446 434 -29 25 -67 58 -84 73 -39 35 -228 183 -277 217 -19 13 -37
27 -40 30 -3 3 -12 10 -22 15 -9 6 -56 37 -105 70 -48 33 -96 65 -105 70 -10
6 -60 36 -113 68 -52 31 -99 57 -104 57 -5 0 -11 4 -13 8 -3 8 -387 202 -400
202 -3 0 -23 8 -44 17 -22 9 -41 17 -44 18 -3 1 -16 6 -30 12 -14 6 -42 18
-62 26 -21 9 -38 13 -38 10 0 -3 -6 -1 -12 5 -12 9 -240 89 -323 112 -79 22
-311 81 -340 86 -16 2 -37 7 -46 10 -10 2 -30 7 -45 9 -16 2 -39 6 -50 9 -12
2 -37 7 -55 10 -19 3 -45 8 -59 10 -30 5 -158 24 -215 31 -22 3 -71 8 -110 11
-38 3 -81 7 -95 9 -55 10 -519 24 -565 17z"/>
<path d="M6226 8103 c-1 -1 -60 -5 -131 -8 -72 -4 -155 -8 -185 -11 -83 -5
-268 -15 -330 -17 l-55 -2 -43 -105 c-24 -58 -47 -114 -52 -125 -26 -59 -52
-121 -54 -130 -2 -5 -8 -21 -13 -35 -48 -113 -133 -326 -133 -332 0 -5 24 -6
53 -3 80 8 190 17 207 18 8 0 20 4 27 9 7 5 14 5 18 -2 3 -6 11 -8 16 -4 5 3
31 7 57 10 26 2 70 6 97 8 28 3 82 8 120 11 39 3 84 8 100 10 17 2 62 7 100
10 39 4 73 10 77 13 4 4 43 93 88 197 44 105 85 199 90 210 10 23 43 100 55
130 5 11 7 23 7 28 -1 4 3 7 10 7 6 0 8 3 5 6 -4 4 1 21 10 38 26 51 33 65 33
71 0 5 -169 3 -174 -2z"/>
<path d="M1576 8082 c-2 -1 -25 -4 -51 -5 l-47 -3 -30 -74 c-16 -41 -33 -84
-38 -95 -5 -11 -14 -32 -20 -47 l-10 -28 154 0 154 0 12 33 c6 17 16 43 22 57
5 14 9 25 8 25 -1 0 12 31 29 68 17 38 31 71 31 73 0 4 -210 1 -214 -4z"/>
<path d="M3267 7913 c-3 -2 -227 -14 -332 -18 l-90 -3 -20 -39 c-11 -22 -26
-55 -34 -74 -8 -19 -22 -53 -32 -76 -11 -23 -19 -44 -19 -46 0 -3 -8 -22 -17
-43 -9 -22 -17 -41 -18 -44 -1 -3 -9 -22 -18 -44 -9 -21 -17 -42 -17 -46 0 -4
51 -6 113 -4 61 1 112 3 112 4 0 2 115 6 251 10 65 2 71 4 81 29 6 14 25 58
41 96 42 101 45 109 44 118 -1 4 3 7 8 7 6 0 9 3 8 8 -1 4 6 25 16 47 17 38
46 114 46 120 0 3 -120 1 -123 -2z"/>
<path d="M2321 7680 c-19 -4 -61 -11 -93 -14 -32 -4 -82 -11 -111 -17 -47 -10
-68 -13 -119 -17 -11 -1 -26 -20 -36 -44 -11 -24 -30 -67 -43 -97 -13 -30 -24
-57 -25 -60 0 -3 -9 -26 -21 -51 -11 -25 -25 -58 -32 -74 l-12 -28 60 6 c72 8
128 15 198 25 29 4 66 7 82 7 17 -1 31 2 31 6 0 4 6 5 13 2 25 -9 49 23 93
126 24 58 48 114 53 125 5 11 17 38 26 60 10 22 20 43 22 48 5 9 -41 8 -86 -3z"/>
<path d="M4095 7662 c-3 -4 -226 -13 -367 -16 -43 0 -78 -4 -78 -8 0 -4 -13
-3 -29 2 -15 4 -34 4 -41 0 -7 -4 -20 -6 -29 -3 -10 2 -22 -2 -27 -9 -12 -15
-126 -277 -128 -294 -1 -7 -8 -19 -15 -28 -7 -9 -11 -16 -8 -16 3 0 -14 -44
-37 -97 -64 -145 -64 -140 -19 -137 21 1 92 5 158 8 131 6 311 16 390 21 28 2
62 4 78 4 25 1 39 18 52 61 1 3 9 22 18 44 9 21 17 40 17 41 0 1 10 24 22 51
12 27 23 54 24 60 1 6 13 35 27 65 14 30 37 86 52 124 15 39 34 82 41 98 12
21 12 27 2 28 -33 3 -100 4 -103 1z"/>
<path d="M4976 7363 c-2 -2 -39 -6 -82 -9 -43 -2 -110 -7 -149 -10 -38 -3 -97
-7 -130 -9 -284 -19 -360 -26 -367 -33 -3 -4 -25 -52 -48 -107 -23 -55 -48
-113 -55 -130 -7 -16 -27 -66 -45 -110 -18 -44 -43 -102 -55 -130 -58 -131
-74 -184 -55 -178 3 0 50 4 105 8 55 3 116 8 135 10 32 3 152 13 240 20 87 6
227 18 250 20 14 2 35 3 48 4 17 1 27 11 38 39 8 20 19 46 24 57 5 11 18 43
29 70 11 28 27 68 37 90 10 22 18 42 18 45 1 3 9 24 18 45 19 44 49 119 49
122 0 1 18 43 39 93 21 49 38 91 37 91 -4 3 -78 5 -81 2z"/>
<path d="M5995 7282 c-2 -2 -33 -5 -70 -7 -36 -2 -105 -7 -153 -10 -48 -3
-123 -8 -167 -11 -202 -12 -406 -28 -427 -32 -5 -1 -8 -7 -8 -12 0 -6 -8 -29
-19 -53 -16 -36 -35 -83 -83 -197 -5 -14 -16 -38 -24 -55 -7 -16 -30 -70 -50
-120 -20 -49 -42 -103 -49 -120 -7 -16 -23 -55 -35 -85 -12 -30 -27 -61 -32
-67 -10 -12 -2 -17 22 -15 3 0 43 3 90 7 47 4 105 9 130 10 25 2 45 4 45 5 0
1 18 3 40 4 46 3 184 16 229 21 17 2 65 7 106 11 41 3 89 8 105 10 17 1 49 4
72 5 38 2 48 9 58 39 1 3 6 16 12 30 24 55 36 85 39 95 1 6 22 57 47 115 24
58 60 143 78 190 19 47 38 88 44 92 5 4 7 8 3 8 -4 0 3 24 16 53 39 87 39 92
10 92 -14 0 -27 -2 -29 -3z"/>
<path d="M1386 7253 c-1 -1 -57 -4 -125 -7 -68 -2 -128 -9 -134 -15 -6 -6 -8
-11 -5 -11 4 0 -7 -30 -23 -66 -16 -36 -38 -87 -49 -113 l-18 -47 155 0 156 1
13 30 c7 17 23 53 35 80 11 28 27 64 34 80 28 64 28 71 -6 70 -17 0 -32 -1
-33 -2z"/>
<path d="M2955 7122 c-1 -2 -31 -5 -66 -7 -54 -3 -194 -12 -329 -20 -19 -2
-41 -3 -48 -4 -7 0 -17 -12 -22 -26 -5 -14 -19 -45 -30 -69 -11 -25 -20 -50
-20 -56 0 -7 -7 -24 -15 -38 -26 -49 -94 -222 -87 -224 18 -4 292 -2 292 2 0
3 51 5 113 5 61 -1 120 2 130 5 13 4 38 52 76 146 61 149 73 179 71 179 -1 0
10 25 24 56 l24 55 -55 0 c-30 -1 -56 -2 -58 -4z"/>
<path d="M2018 6855 c-2 -2 -23 -6 -48 -10 -42 -6 -68 -10 -130 -20 -59 -10
-88 -14 -130 -20 -25 -4 -50 -8 -57 -9 -14 -2 -28 -14 -29 -24 -1 -8 -19 -54
-39 -97 -29 -64 -95 -223 -95 -230 0 -3 12 -4 28 -1 15 3 50 8 77 11 28 3 61
7 75 9 14 2 52 7 85 11 33 4 67 9 75 11 8 1 28 3 43 3 24 1 31 8 48 49 11 26
31 71 45 100 13 29 24 55 24 58 0 8 39 95 56 127 8 15 14 27 12 28 -19 5 -37
6 -40 4z"/>
<path d="M3646 6853 c-1 -2 -324 -13 -423 -15 -29 -1 -43 -5 -43 -15 0 -7 -4
-21 -10 -31 -15 -27 -71 -165 -75 -186 -3 -10 -8 -23 -13 -30 -5 -6 -17 -33
-27 -61 -10 -27 -26 -68 -35 -90 -10 -22 -27 -62 -38 -90 -11 -27 -23 -58 -27
-68 -8 -19 4 -19 335 -1 52 3 133 7 180 9 47 2 85 4 85 5 0 1 19 2 42 3 23 1
43 4 45 7 11 13 41 93 41 105 0 8 4 15 8 15 4 0 16 25 25 55 10 30 21 55 26
55 4 0 8 7 8 15 0 14 99 260 120 297 6 10 10 20 10 23 0 4 -229 3 -234 -2z"/>
<path d="M4646 6562 c-2 -1 -38 -5 -81 -7 -42 -3 -98 -7 -123 -9 -75 -8 -188
-17 -250 -22 -238 -17 -268 -20 -279 -27 -5 -3 -29 -57 -53 -119 -25 -62 -48
-116 -53 -119 -5 -3 -9 -10 -9 -15 0 -5 -4 -19 -9 -32 -5 -13 -9 -26 -9 -29 0
-3 -7 -19 -14 -36 -16 -34 -70 -166 -105 -254 -13 -34 -16 -51 -8 -48 7 2 53
6 102 10 50 3 115 7 145 10 30 2 96 7 145 10 50 4 108 8 130 10 22 1 85 6 140
9 55 4 109 8 120 10 20 3 62 95 231 511 25 61 49 118 54 127 6 10 10 20 10 22
0 5 -79 3 -84 -2z"/>
<path d="M5534 6441 c-2 -2 -34 -5 -71 -7 -38 -1 -68 -3 -68 -4 0 -1 -34 -3
-75 -4 -41 -2 -129 -7 -195 -11 -153 -10 -201 -13 -247 -14 -35 -1 -39 -5 -59
-48 -35 -80 -46 -105 -79 -183 -18 -41 -38 -90 -46 -107 -8 -18 -14 -35 -14
-38 0 -3 -11 -28 -25 -55 -14 -27 -26 -53 -26 -57 -2 -13 -17 -50 -44 -109
-14 -30 -25 -61 -25 -69 0 -8 -5 -15 -11 -15 -5 0 -8 -4 -4 -9 3 -5 1 -12 -5
-16 -20 -12 0 -23 37 -20 21 1 38 3 38 4 0 1 29 4 65 6 89 5 213 14 285 21 33
3 85 7 115 9 30 2 89 6 130 9 41 4 103 8 138 11 65 4 82 10 82 26 0 8 88 227
153 379 6 14 11 27 12 30 3 9 18 45 56 135 20 50 40 102 44 116 l6 26 -81 -1
c-45 -1 -83 -3 -86 -5z"/>
<path d="M1047 6404 c-3 -4 -124 -11 -213 -13 l-51 -1 -38 -87 c-20 -49 -43
-102 -51 -120 l-14 -32 152 3 c150 3 151 3 170 29 11 14 19 28 18 29 -2 4 11
38 44 115 14 34 26 64 26 67 0 5 -38 15 -43 10z"/>
<path d="M2628 6284 c-4 -3 -46 -7 -95 -10 -48 -2 -133 -7 -188 -10 -55 -3
-116 -5 -135 -5 -19 1 -40 -2 -46 -7 -11 -6 -169 -369 -176 -401 -2 -11 7 -14
37 -13 22 0 145 3 274 6 248 6 245 5 257 56 4 14 12 31 17 39 6 7 12 19 13 26
1 7 9 28 17 46 52 116 108 260 103 267 -6 10 -48 8 -67 -4 -8 -4 -9 -3 -5 4 8
13 3 16 -6 6z"/>
<path d="M3469 6026 c-2 -3 -106 -8 -229 -11 -342 -10 -401 -12 -404 -16 -12
-18 -53 -128 -49 -133 4 -3 1 -6 -5 -6 -7 0 -12 -6 -12 -13 0 -13 -62 -169
-80 -199 -6 -10 -10 -23 -10 -29 0 -5 -11 -35 -25 -64 -13 -30 -27 -66 -31
-80 -3 -14 -10 -28 -15 -31 -5 -3 -9 -11 -9 -18 0 -10 14 -13 53 -11 28 2 102
6 162 10 61 3 162 8 225 11 63 4 135 8 160 9 25 2 56 3 70 4 21 1 29 11 49 64
14 34 34 82 45 107 11 25 21 50 22 55 2 11 55 140 78 190 50 109 65 155 52
155 -8 0 -21 2 -28 5 -8 3 -16 4 -19 1z"/>
<path d="M1645 6001 c-3 -2 -15 -5 -27 -6 -60 -7 -148 -19 -218 -31 -25 -4
-54 -8 -65 -8 -11 0 -23 -5 -27 -10 -5 -7 -8 -5 -8 4 -1 22 -30 -19 -30 -42 0
-10 -4 -18 -10 -18 -5 0 -10 -7 -10 -16 0 -9 -6 -30 -14 -47 -24 -52 -86 -210
-86 -219 0 -7 58 -4 135 7 89 13 190 26 261 34 6 0 16 11 22 24 10 20 111 260
132 312 7 18 4 21 -22 20 -16 0 -31 -2 -33 -4z"/>
<path d="M4256 5723 c-1 -1 -38 -5 -82 -8 -43 -3 -101 -7 -129 -10 -27 -2 -86
-7 -130 -10 -132 -11 -146 -13 -152 -19 -3 -3 -13 -1 -23 4 -10 5 -21 6 -24 2
-4 -4 -29 -8 -54 -9 -100 -6 -90 3 -148 -133 -67 -154 -66 -152 -98 -223 -14
-32 -26 -61 -26 -65 0 -5 -11 -30 -23 -58 -13 -27 -35 -76 -48 -109 -13 -33
-28 -63 -32 -66 -16 -11 10 -19 45 -14 18 2 69 7 113 10 44 2 100 7 125 10 25
3 79 7 120 10 72 6 95 7 260 20 41 3 93 7 115 9 35 2 42 7 59 42 11 21 26 51
33 67 8 15 11 27 8 27 -3 0 0 10 7 23 7 12 13 24 13 27 1 3 7 19 14 35 7 17
24 57 36 90 13 33 32 80 43 105 18 42 33 78 37 90 1 3 7 19 14 35 6 17 13 35
15 40 2 6 11 27 20 47 l16 38 -60 -2 c-34 -1 -62 -3 -64 -5z"/>
<path d="M5145 5601 c-3 -2 -42 -5 -87 -7 -46 -2 -119 -6 -163 -8 -44 -3 -129
-9 -190 -12 -166 -9 -209 -12 -217 -13 -4 -1 -16 -27 -28 -58 -12 -32 -28 -71
-35 -88 -8 -16 -35 -82 -61 -145 -25 -63 -51 -126 -57 -140 -6 -14 -11 -27
-12 -30 0 -3 -11 -27 -24 -55 -12 -27 -24 -57 -26 -65 -2 -8 -15 -41 -29 -72
-20 -45 -22 -58 -12 -67 7 -6 16 -8 20 -4 3 4 23 8 44 9 61 2 225 15 252 19
24 3 79 8 225 20 39 3 90 8 115 11 25 2 78 7 118 9 40 2 78 7 83 11 9 5 47 82
55 109 7 26 50 121 57 126 5 3 8 8 7 10 -2 7 61 164 111 276 10 23 19 45 19
48 0 3 13 33 30 66 l29 60 -110 -3 c-61 -2 -112 -5 -114 -7z"/>
<path d="M647 5593 c-1 -1 -47 -3 -101 -5 l-98 -3 -16 -40 c-9 -22 -20 -43
-26 -47 -6 -4 -8 -8 -3 -8 4 0 -2 -18 -13 -40 -11 -22 -18 -40 -15 -40 4 0 -1
-10 -9 -22 -33 -47 -27 -49 135 -46 89 1 153 6 158 13 4 5 25 51 46 100 21 50
42 95 45 100 24 36 19 41 -42 41 -33 -1 -60 -2 -61 -3z"/>
<path d="M2327 5444 c-2 -3 -42 -6 -88 -9 -326 -15 -429 -21 -434 -27 -1 -2
-31 -70 -65 -153 -34 -82 -73 -174 -86 -203 -22 -49 -24 -80 -4 -67 4 2 90 7
191 11 101 3 213 7 249 9 36 2 75 4 87 4 15 1 25 11 33 37 7 20 18 48 26 62 8
15 14 33 14 40 0 7 4 20 10 30 20 35 98 242 92 242 -4 0 -1 4 6 9 11 6 9 9 -7
14 -11 2 -22 3 -24 1z"/>
<path d="M1316 5203 c-1 -1 -20 -5 -42 -8 -21 -3 -64 -10 -94 -15 -30 -5 -73
-12 -95 -15 -22 -3 -49 -7 -60 -9 -11 -3 -32 -5 -46 -5 -22 -1 -30 -10 -48
-50 -30 -70 -44 -104 -47 -116 -1 -5 -15 -41 -32 -80 -46 -108 -47 -115 -21
-110 12 3 45 7 73 10 28 3 62 8 76 10 27 4 116 15 165 21 17 1 39 5 50 8 11 2
23 5 26 5 4 1 12 16 19 34 7 17 16 41 21 52 5 11 29 72 55 135 25 63 48 121
51 127 3 9 -4 12 -22 11 -14 -1 -27 -4 -29 -5z"/>
<path d="M2997 5173 c-2 -1 -72 -4 -156 -7 -85 -3 -156 -8 -159 -10 -2 -3 -13
-1 -23 5 -11 5 -19 6 -19 1 0 -4 -22 -8 -50 -9 -114 -2 -102 6 -142 -90 -20
-49 -71 -171 -113 -273 -41 -102 -80 -193 -85 -202 -13 -24 -3 -27 70 -23 36
3 108 7 160 9 52 3 154 8 225 12 72 4 153 8 182 8 l51 1 32 77 c18 42 31 80
30 84 -1 4 2 10 7 13 10 7 54 121 52 135 0 5 3 12 8 15 5 3 26 47 45 96 20 50
44 107 52 127 l16 37 -91 -2 c-50 -1 -91 -3 -92 -4z"/>
<path d="M3936 4883 c-1 -1 -35 -5 -76 -8 -41 -3 -97 -7 -125 -9 -27 -3 -88
-8 -135 -11 -143 -11 -172 -13 -255 -20 -44 -4 -92 -8 -107 -8 -22 -1 -30 -9
-52 -59 -14 -32 -26 -63 -26 -71 0 -7 -6 -21 -13 -32 -7 -11 -21 -42 -31 -70
-10 -27 -25 -63 -32 -80 -7 -16 -41 -100 -75 -185 -33 -85 -63 -159 -66 -163
-4 -7 109 -2 182 8 17 2 75 7 130 10 55 3 123 9 150 11 79 8 124 12 220 19 50
4 101 8 114 9 20 2 31 22 83 152 32 82 66 162 74 178 7 16 14 33 14 38 0 4 8
27 19 51 20 46 48 113 80 195 l21 52 -46 -2 c-25 -2 -47 -4 -48 -5z"/>
<path d="M4856 4783 c-1 -1 -60 -5 -131 -8 -72 -4 -152 -8 -180 -10 -27 -2
-100 -6 -162 -9 -243 -12 -252 -14 -268 -74 -3 -12 -23 -64 -44 -115 -21 -51
-49 -119 -62 -152 -13 -33 -30 -70 -37 -82 -8 -13 -11 -23 -7 -23 4 0 3 -6 -3
-12 -6 -7 -21 -43 -35 -79 -14 -36 -31 -77 -38 -90 -22 -43 -26 -54 -34 -88
-4 -19 -3 -31 2 -28 8 5 84 13 213 22 44 3 122 10 230 20 57 6 106 10 250 21
47 3 96 7 110 9 14 2 35 3 48 4 17 1 27 11 38 39 8 20 19 46 24 57 5 11 37 88
71 170 33 83 67 164 74 180 11 25 85 200 102 243 5 11 -11 13 -76 10 -46 -2
-84 -4 -85 -5z"/>
<path d="M236 4763 c-4 -4 -34 -8 -68 -10 -34 -2 -65 -6 -69 -11 -3 -4 -20
-41 -36 -82 -17 -41 -34 -84 -38 -95 -5 -11 -9 -22 -9 -25 -1 -3 -5 -10 -9
-17 -12 -18 1 -21 98 -18 50 2 117 3 150 4 61 1 61 1 75 39 8 20 15 39 15 42
1 3 9 23 19 45 22 49 46 115 46 125 0 9 -128 5 -137 -4 -3 -3 -11 -1 -18 4 -7
5 -15 7 -19 3z"/>
<path d="M1998 4635 c-1 -1 -70 -6 -153 -10 -82 -4 -175 -9 -205 -10 -30 -2
-81 -5 -112 -6 l-57 -2 -23 -56 c-12 -31 -23 -62 -25 -70 -1 -8 -8 -18 -15
-22 -7 -5 -10 -9 -6 -9 4 0 -18 -58 -47 -130 -29 -71 -50 -132 -46 -134 4 -3
50 -3 102 -1 52 2 162 7 244 10 138 6 189 9 207 13 3 1 10 16 13 34 4 18 11
39 16 48 5 8 32 74 60 145 28 72 55 141 62 155 6 14 12 28 14 31 3 7 -23 20
-29 14z"/>
<path d="M2800 4382 c0 -4 -28 -8 -63 -8 -34 -1 -114 -4 -177 -8 -63 -3 -171
-8 -240 -11 -69 -3 -134 -7 -146 -10 -13 -3 -28 -23 -43 -62 -38 -93 -47 -115
-76 -178 -15 -33 -31 -71 -35 -85 -5 -14 -29 -73 -54 -132 -25 -59 -42 -109
-38 -112 4 -2 43 -3 87 -1 44 2 157 7 250 11 94 3 195 8 225 9 30 2 69 3 85 4
28 1 32 7 75 107 25 59 45 109 46 113 0 3 9 26 21 51 11 25 40 90 63 145 23
55 48 112 55 126 11 25 10 28 -11 38 -13 6 -24 7 -24 3z"/>
<path d="M1019 4376 c-4 -4 -39 -10 -124 -22 -27 -3 -59 -8 -70 -10 -11 -2
-51 -9 -90 -14 -107 -16 -129 -21 -136 -28 -9 -10 -99 -238 -99 -251 0 -6 -4
-11 -8 -11 -5 0 -9 -6 -9 -12 0 -7 -4 -26 -8 -42 -5 -17 -4 -27 1 -23 5 3 41
8 79 11 87 8 187 20 275 31 46 6 70 25 70 57 0 10 4 18 10 18 5 0 9 3 8 8 -2
4 6 27 16 52 10 25 18 47 17 50 0 3 6 14 13 25 7 11 15 29 19 40 3 11 15 44
26 73 19 48 22 59 10 48z"/>
<path d="M3668 4084 c-3 -3 -37 -7 -74 -10 -38 -2 -91 -6 -119 -8 -43 -4 -153
-13 -260 -21 -16 -1 -30 -3 -30 -4 0 -1 -38 -4 -85 -6 -47 -3 -110 -8 -140
-11 -30 -3 -63 -6 -72 -6 -16 1 -35 -32 -30 -50 1 -5 -2 -8 -6 -8 -5 0 -9 -6
-9 -13 0 -8 -10 -36 -22 -63 -13 -27 -26 -58 -31 -69 -4 -11 -16 -40 -26 -65
-11 -24 -19 -47 -20 -50 0 -3 -8 -22 -17 -44 -9 -21 -17 -41 -17 -43 0 -3 -7
-20 -15 -39 -8 -19 -22 -49 -30 -68 -8 -19 -15 -37 -15 -41 0 -6 -37 -91 -47
-109 -3 -4 3 -6 13 -3 11 3 64 9 119 12 55 4 116 8 135 10 19 1 78 6 130 10
52 4 113 9 135 11 22 2 76 6 120 9 44 3 89 8 100 10 11 2 33 4 48 4 17 1 30 8
33 19 8 24 34 88 59 147 12 28 28 67 34 87 7 21 17 40 22 43 5 4 9 12 9 19 0
8 10 35 22 62 12 27 23 51 23 54 2 7 13 32 56 135 21 49 35 93 33 97 -6 9 -18
10 -26 2z"/>
<path d="M4649 3945 c-4 -4 -109 -12 -279 -21 -41 -2 -104 -6 -140 -8 -36 -3
-112 -7 -170 -10 -290 -16 -281 -14 -295 -78 -4 -15 -17 -50 -31 -78 -13 -27
-24 -56 -24 -63 0 -7 -4 -17 -8 -23 -5 -5 -15 -25 -22 -44 -7 -19 -19 -48 -26
-65 -7 -16 -29 -70 -49 -120 -38 -95 -41 -103 -74 -176 -11 -26 -23 -58 -27
-72 l-6 -26 64 4 c34 2 90 7 123 10 60 5 126 11 253 20 37 3 85 7 107 10 22 3
67 7 100 10 33 2 94 7 135 11 41 4 80 7 87 7 7 0 10 4 7 9 -3 4 0 8 5 8 6 0
11 7 11 15 0 8 11 38 24 67 13 29 59 136 101 238 42 102 82 191 88 199 7 8 11
16 9 18 -5 6 10 53 17 53 4 0 8 6 8 13 0 6 8 29 17 49 9 20 12 39 7 42 -4 3
-10 4 -12 1z"/>
<path d="M1505 3790 c-22 -3 -86 -5 -142 -5 -57 0 -103 -2 -103 -5 0 -3 -30
-5 -66 -5 -36 0 -71 -3 -77 -7 -7 -4 -8 -8 -4 -8 4 0 2 -10 -5 -22 -7 -13 -13
-25 -14 -28 -2 -8 -15 -44 -25 -65 -5 -11 -32 -76 -60 -145 -28 -69 -53 -131
-56 -137 -3 -7 1 -13 8 -14 33 -2 311 9 525 20 16 1 27 14 43 54 28 67 39 92
51 120 54 123 99 241 95 248 -6 8 -99 8 -170 -1z"/>
<path d="M2345 3541 c-2 -2 -48 -5 -102 -6 -238 -7 -419 -17 -427 -25 -14 -14
-84 -179 -78 -184 3 -4 0 -6 -6 -6 -7 0 -12 -7 -12 -17 0 -9 -11 -39 -24 -67
-23 -47 -54 -120 -56 -131 -1 -2 -15 -35 -31 -72 -44 -95 -44 -98 0 -96 20 1
36 2 36 3 0 0 54 3 120 5 130 4 397 15 458 19 37 2 39 4 71 79 19 42 32 77 29
77 -3 0 1 10 9 23 8 12 21 40 28 62 7 22 21 55 31 73 10 17 17 32 15 32 -2 0
18 52 44 115 26 63 45 116 42 116 -16 4 -144 4 -147 0z"/>
<path d="M3306 3242 c-4 -3 -25 -7 -49 -8 -23 -1 -76 -5 -117 -8 -41 -3 -115
-8 -165 -11 -49 -3 -107 -8 -128 -10 -20 -2 -85 -7 -145 -11 -59 -4 -114 -8
-122 -10 -8 -1 -22 -3 -30 -3 -8 -1 -24 -22 -34 -49 -10 -26 -29 -71 -42 -100
-13 -29 -24 -55 -24 -57 0 -2 -11 -29 -25 -59 -14 -30 -25 -61 -25 -69 0 -8
-7 -20 -15 -27 -8 -6 -13 -15 -12 -18 1 -6 -46 -126 -78 -197 -24 -53 -35 -86
-27 -82 4 3 54 8 112 12 57 3 127 8 155 10 27 2 86 7 130 10 44 4 105 8 135
10 69 3 233 16 254 19 16 2 31 13 32 24 0 4 8 25 18 47 10 22 37 87 61 145 24
58 51 123 61 145 10 22 18 42 19 45 1 3 6 16 12 30 92 218 92 218 73 223 -10
3 -21 2 -24 -1z"/>
<path d="M4257 3104 c-4 -4 -224 -16 -319 -18 -38 -1 -68 -3 -68 -6 0 -3 -26
-5 -58 -6 -31 0 -113 -5 -182 -9 -69 -4 -137 -8 -152 -8 -27 1 -32 -7 -69 -94
-21 -51 -29 -71 -53 -126 -14 -32 -26 -60 -26 -63 0 -3 -11 -30 -25 -60 -14
-30 -25 -56 -25 -58 0 -2 -8 -21 -17 -42 -9 -22 -17 -41 -18 -44 -1 -3 -7 -18
-13 -33 -7 -16 -12 -33 -12 -38 0 -5 -4 -9 -10 -9 -5 0 -9 -3 -7 -8 2 -7 -25
-77 -44 -114 -16 -32 -11 -44 19 -42 15 2 56 6 92 9 36 3 83 8 105 10 22 2 72
6 110 10 39 4 86 8 105 10 72 6 177 16 210 20 29 4 176 16 217 18 7 0 16 10
19 21 4 11 20 49 35 83 16 33 29 65 29 69 0 9 34 85 56 127 8 15 13 27 9 27
-3 0 1 13 10 30 16 31 135 318 138 334 2 8 -49 17 -56 10z"/>
</g>
</svg>
